<svg width="100" height="100" viewBox="0 0 100 100" fill="none" xmlns="http://www.w3.org/2000/svg">
<mask id="mask0_1_1533" style="mask-type:alpha" maskUnits="userSpaceOnUse" x="0" y="0" width="100" height="100">
<rect width="100" height="100" fill="#D9D9D9"/>
</mask>
<g mask="url(#mask0_1_1533)">
<path d="M84.3487 84.4043C60.0423 57.8875 49.2683 42.145 30.2105 30.2668C29.8408 23.2442 25.9693 10.3697 14.1645 4.8808M14.1645 4.8808C11.2663 3.53325 6.78543 3.18302 2.86536 2.92168C7.46879 4.02666 27.7247 11.208 10.8757 33.5813C-0.238686 48.3397 2.03683 58.4405 6.45625 60.6502C12.3156 63.5799 12.2567 57.0594 10.3232 56.7832M14.1645 4.8808C19.7894 8.09471 28.1666 19.1629 16.6761 37.7245M16.6761 37.7245C2.31304 60.9264 -5.42094 89.6526 7.5611 88.2716M16.6761 37.7245C14.2823 43.8012 11.2071 57.6671 18.0572 64.5172C20.0768 66.5367 22.0502 68.0185 23.8834 69.1872M27.7247 78.6041C26.3436 82.1949 33.8474 83.622 34.0776 78.3279C34.2887 73.4733 29.8225 72.9735 23.8834 69.1872M23.8834 69.1872C24.9797 69.1957 27.1723 68.6604 30.2106 64.5172C33.5181 60.0071 39.8781 63.6886 40.7067 69.489C41.5354 75.2895 43.3838 82.4848 48.7169 84.6808C53.4126 86.6143 57.0033 82.4711 57.0033 80.2614C57.0033 78.6041 55.8791 77.503 54.7936 76.9468C53.9 76.4889 51.4791 77.4992 51.7553 79.9852" stroke="#E5DCBF" stroke-linecap="round" stroke-linejoin="round"/>
<path d="M84.3474 84.4057C79.6362 77.4338 76.8537 71.233 74.5195 65.5074C73.3543 62.6491 72.3008 59.9092 71.175 57.251M55.345 35.5159C59.6727 39.0442 62.7968 42.5246 65.2394 46.0613C67.7482 49.694 69.5381 53.3862 71.175 57.251M55.345 35.5159C55.4085 34.692 55.6901 33.4667 56.3024 32.0518C56.9277 30.6067 57.898 28.9638 59.3332 27.3486C60.5759 25.9499 62.1672 24.5721 64.1849 23.3614M55.345 35.5159C53.0029 35.0457 47.6338 34.4605 44.8943 35.8821M64.1849 23.3614C58.8243 22.9326 55.2532 24.3764 52.5184 26.6105C51.8069 27.1918 51.1519 27.8266 50.5368 28.4959M64.1849 23.3614C62.1156 22.3054 58.6088 20.9975 54.5228 20.3177M36.2873 34.1338C39.0228 32.9075 40.245 31.0336 40.6112 29.0665C41.103 26.4254 40.052 23.6162 39.0494 21.9804C42.0942 20.5304 45.3607 19.9325 48.5352 19.8651C50.5987 19.8213 52.6233 20.0016 54.5228 20.3177M71.175 57.251C70.844 56.4771 60.8703 49.878 53.1363 49.3255M42.0878 38.8294C43.116 37.98 44.0285 36.9714 44.8943 35.8821M44.8943 35.8821C45.5057 35.1128 46.0939 34.3032 46.6831 33.481C47.2169 32.7362 47.7515 31.981 48.3051 31.236C49.0063 30.2924 49.738 29.3651 50.5368 28.4959M50.5368 28.4959C50.5783 26.8729 51.4336 22.965 54.5228 20.3177" stroke="#E5DCBF" stroke-linecap="round" stroke-linejoin="round"/>
<path d="M84.4043 84.3486C57.8875 60.0422 42.145 49.2681 30.2669 30.2104C23.2443 29.8407 10.3697 25.9692 4.88083 14.1644M4.88083 14.1644C3.53329 11.2662 3.18305 6.78531 2.92171 2.86524C4.02669 7.46867 11.208 27.7246 33.5813 10.8755C48.3397 -0.238808 58.4405 2.03671 60.6502 6.45612C63.5799 12.3155 57.0595 12.2566 56.7832 10.3231M4.88083 14.1644C8.09474 19.7893 19.163 28.1665 37.7245 16.676M37.7245 16.676C60.9265 2.31292 89.6527 -5.42106 88.2716 7.56098M37.7245 16.676C43.8012 14.2822 57.6671 11.207 64.5172 18.0571C66.5368 20.0766 68.0185 22.0501 69.1872 23.8832M78.6041 27.7246C82.1949 26.3435 83.622 33.8473 78.3279 34.0775C73.4734 34.2885 72.9735 29.8223 69.1872 23.8832M69.1872 23.8832C69.1958 24.9795 68.6604 27.1721 64.5172 30.2105C60.0071 33.5179 63.6886 39.878 69.4891 40.7066C75.2896 41.5352 82.4848 43.3837 84.6808 48.7168C86.6143 53.4124 82.4711 57.0032 80.2614 57.0032C78.6041 57.0032 77.503 55.879 76.9468 54.7935C76.489 53.8999 77.4993 51.4789 79.9852 51.7552" stroke="#E5DCBF" stroke-linecap="round" stroke-linejoin="round"/>
<path d="M84.4056 84.3477C77.4338 79.6365 71.2329 76.854 65.5073 74.5198M35.5158 55.3453C39.0442 59.673 42.5245 62.7971 46.0613 65.2397C49.694 67.7485 53.3862 69.5384 57.2509 71.1753C59.9091 72.3011 62.649 73.3546 65.5073 74.5198M35.5158 55.3453C34.6919 55.4088 33.4666 55.6904 32.0517 56.3027C30.6066 56.928 28.9637 57.8983 27.3485 59.3335C25.9499 60.5762 24.572 62.1675 23.3614 64.1852M35.5158 55.3453C35.0456 53.0032 34.4605 47.6341 35.882 44.8946M23.3614 64.1852C22.9325 58.8246 24.3763 55.2535 26.6105 52.5187C27.1918 51.8072 27.8266 51.1522 28.4959 50.5371M23.3614 64.1852C22.3054 62.1159 20.9975 58.6091 20.3176 54.5231M34.1337 36.2876C32.9075 39.0231 31.0336 40.2453 29.0664 40.6116C26.4253 41.1033 23.6161 40.0523 21.9803 39.0497C20.5303 42.0945 19.9325 45.361 19.8651 48.5355C19.8213 50.599 20.0016 52.6237 20.3176 54.5231M65.5073 74.5198C63.6121 72.7322 59.6559 67.776 58.9929 62.2517M38.8293 42.0881C37.9799 43.1163 36.9714 44.0288 35.882 44.8946M35.882 44.8946C35.1127 45.506 34.3032 46.0942 33.481 46.6834C32.7361 47.2172 31.981 47.7518 31.236 48.3054C30.2923 49.0066 29.365 49.7383 28.4959 50.5371M28.4959 50.5371C26.8728 50.5786 22.9649 51.4339 20.3176 54.5231" stroke="#E5DCBF" stroke-linecap="round" stroke-linejoin="round"/>
</g>
</svg>
