<svg width="565" height="664" viewBox="0 0 565 664" fill="none" xmlns="http://www.w3.org/2000/svg">
<path d="M50.663 628.256L54.3366 438.111M57.8199 257.808L56.3974 331.442M54.5094 429.163L56.2076 341.266" stroke="#E5DCBF"/>
<path d="M56.9914 251.132C55.1634 251.741 50.3436 252.025 50.3436 246.176C50.3436 239.108 59.5259 237.816 64.213 241.534C67.0983 243.823 67.5989 250.174 65.1078 252.887M87.1539 224.625H62.4233C50.7908 224.625 40.2143 228.827 38.7111 241.534C37.3683 252.887 46.7644 257.987 53.3354 257.987C59.9064 257.987 62.4233 255.81 65.1078 252.887M65.1078 252.887C70.4765 257.361 77.6349 260.729 87.1539 260.729" stroke="#E5DCBF" stroke-linecap="round"/>
<path d="M117.192 251.132C119.02 251.741 123.839 252.025 123.839 246.176C123.839 239.108 114.657 237.816 109.97 241.534C107.085 243.823 106.584 250.174 109.075 252.887M87.0291 224.625H111.76C123.392 224.625 133.969 228.827 135.472 241.534C136.815 252.887 127.419 257.987 120.848 257.987C114.277 257.987 111.76 255.81 109.075 252.887M109.075 252.887C103.706 257.361 96.5481 260.729 87.0291 260.729" stroke="#E5DCBF" stroke-linecap="round"/>
<path d="M268.709 4.30937C269.582 4.01519 271.881 3.87805 271.881 6.70219C271.881 10.1142 267.5 10.7379 265.263 8.94287C263.887 7.83787 263.662 5.25899 264.836 3.46221C265.861 1.89478 267.318 0.999961 270.454 0.999961C273.589 0.999961 278.073 3.46222 277.432 8.94287C276.715 15.0779 271.881 17.1064 261.835 18.0012" stroke="#E5DCBF" stroke-linecap="round"/>
<path d="M295.226 4.30937C294.354 4.01519 292.054 3.87805 292.054 6.70219C292.054 10.1142 296.436 10.7379 298.672 8.94287C300.049 7.83787 300.274 5.25899 299.099 3.46221C298.074 1.89478 296.617 0.999961 293.482 0.999961C290.346 0.999961 285.863 3.46222 286.504 8.94287C287.221 15.0779 292.054 17.1064 302.101 18.0012" stroke="#E5DCBF" stroke-linecap="round"/>
<path d="M61.1092 188.278C61.0205 189.195 60.2039 191.349 57.6274 190.193C54.5145 188.796 55.7394 184.543 58.2928 183.237C59.8647 182.434 62.3096 183.284 63.4678 185.092C64.4782 186.669 64.0853 189.994 63.4678 192.756" stroke="#E5DCBF" stroke-linecap="round"/>
<path d="M74.5576 146.513C74.3762 147.416 73.3451 149.476 70.8993 148.064C67.9444 146.358 69.595 142.251 72.2678 141.212C73.9131 140.572 76.2591 141.667 77.2277 143.583C78.0726 145.254 77.953 149.09 76.6083 152.221" stroke="#E5DCBF" stroke-linecap="round"/>
<path d="M94.8521 112.06C94.4201 112.873 92.8424 114.552 90.903 112.499C88.5599 110.019 91.3165 106.557 94.175 106.326C95.9346 106.183 97.8692 107.903 98.2491 110.016C98.5804 111.859 97.0665 114.944 95.4409 117.26" stroke="#E5DCBF" stroke-linecap="round"/>
<path d="M124.031 77.1539C123.484 77.8941 121.676 79.3219 120.06 77.0051C118.109 74.2062 121.347 71.1888 124.208 71.3822C125.969 71.5013 127.629 73.4881 127.693 75.634C127.748 77.5059 125.538 80.8237 123.588 82.8744" stroke="#E5DCBF" stroke-linecap="round"/>
<path d="M157.775 50.2338C157.166 50.9247 155.243 52.1934 153.831 49.7476C152.125 46.7928 155.608 44.0618 158.442 44.4981C160.187 44.7667 161.671 46.8875 161.552 49.031C161.448 50.9009 158.811 53.7048 156.693 55.5822" stroke="#E5DCBF" stroke-linecap="round"/>
<path d="M193.783 31.3966C192.963 31.8162 190.709 32.291 190.292 29.4977C189.789 26.1231 194.031 24.86 196.508 26.3056C198.032 27.1955 198.635 29.713 197.738 31.6634C196.955 33.3648 195.619 34.555 192.488 35.8972" stroke="#E5DCBF" stroke-linecap="round"/>
<path d="M232.347 19.1418C231.474 19.436 229.175 19.5732 229.175 16.749C229.175 13.337 233.556 12.7133 235.793 14.5083C237.169 15.6133 237.394 18.1922 236.219 19.989C235.195 21.5564 230.604 23.2503 227.832 23.8176" stroke="#E5DCBF" stroke-linecap="round"/>
<path d="M58.8406 224.701C67.112 108.672 164.05 17.1064 282.416 17.1064C400.783 17.1064 497.721 108.672 505.992 224.701" stroke="#E5DCBF"/>
<path d="M65.1531 224.253C73.6284 111.9 167.662 23.3701 282.415 23.3701C397.321 23.3701 491.452 112.135 499.711 224.701" stroke="#E5DCBF"/>
<path d="M504.046 188.278C504.135 189.195 504.952 191.349 507.528 190.193C510.641 188.796 509.416 184.543 506.863 183.237C505.291 182.434 502.846 183.284 501.688 185.092C500.677 186.669 501.07 189.994 501.688 192.756" stroke="#E5DCBF" stroke-linecap="round"/>
<path d="M490.598 146.513C490.779 147.416 491.81 149.476 494.256 148.064C497.211 146.358 495.561 142.251 492.888 141.212C491.242 140.572 488.896 141.667 487.928 143.583C487.083 145.254 487.203 149.09 488.547 152.221" stroke="#E5DCBF" stroke-linecap="round"/>
<path d="M470.303 112.06C470.735 112.873 472.313 114.552 474.252 112.499C476.596 110.019 473.839 106.557 470.981 106.326C469.221 106.183 467.286 107.903 466.906 110.016C466.575 111.859 468.089 114.944 469.715 117.26" stroke="#E5DCBF" stroke-linecap="round"/>
<path d="M441.124 77.1539C441.672 77.8941 443.48 79.3219 445.095 77.0051C447.046 74.2062 443.809 71.1888 440.948 71.3822C439.186 71.5013 437.527 73.4881 437.463 75.634C437.407 77.5059 439.618 80.8237 441.568 82.8744" stroke="#E5DCBF" stroke-linecap="round"/>
<path d="M407.381 50.2338C407.989 50.9247 409.912 52.1934 411.324 49.7476C413.03 46.7928 409.548 44.0618 406.713 44.4981C404.969 44.7667 403.484 46.8875 403.603 49.031C403.707 50.9009 406.345 53.7048 408.462 55.5822" stroke="#E5DCBF" stroke-linecap="round"/>
<path d="M371.373 31.3966C372.192 31.8162 374.447 32.291 374.863 29.4977C375.366 26.1231 371.125 24.86 368.648 26.3056C367.123 27.1955 366.52 29.713 367.417 31.6634C368.2 33.3648 369.536 34.555 372.668 35.8972" stroke="#E5DCBF" stroke-linecap="round"/>
<path d="M332.809 19.1418C333.681 19.436 335.981 19.5732 335.981 16.749C335.981 13.337 331.599 12.7133 329.363 14.5083C327.986 15.6133 327.761 18.1922 328.936 19.989C329.961 21.5564 334.551 23.2503 337.323 23.8176" stroke="#E5DCBF" stroke-linecap="round"/>
<path d="M108.215 224.7C116.344 135.885 191.033 66.3206 281.968 66.3206C372.904 66.3206 447.593 135.885 455.721 224.7" stroke="#E5DCBF"/>
<path d="M114.507 224.701C122.614 139.349 194.495 72.5842 281.969 72.5842C369.596 72.5842 441.574 139.583 449.472 225.148" stroke="#E5DCBF"/>
<line x1="151.827" y1="172.854" x2="151.827" y2="190.645" stroke="#E5DCBF" stroke-linecap="round"/>
<line x1="160.222" y1="182.25" x2="142.431" y2="182.25" stroke="#E5DCBF" stroke-linecap="round"/>
<line x1="160.462" y1="191.593" x2="141.484" y2="172.614" stroke="#E5DCBF" stroke-linecap="round"/>
<line x1="161.17" y1="172.614" x2="142.191" y2="191.593" stroke="#E5DCBF" stroke-linecap="round"/>
<line x1="11.3428" y1="124.535" x2="11.3428" y2="142.326" stroke="#E5DCBF" stroke-linecap="round"/>
<line x1="19.7382" y1="133.931" x2="1.9474" y2="133.931" stroke="#E5DCBF" stroke-linecap="round"/>
<line x1="19.9785" y1="143.273" x2="0.999996" y2="124.295" stroke="#E5DCBF" stroke-linecap="round"/>
<line x1="20.6856" y1="124.295" x2="1.7071" y2="143.274" stroke="#E5DCBF" stroke-linecap="round"/>
<line x1="554.488" y1="225.648" x2="554.488" y2="243.439" stroke="#E5DCBF" stroke-linecap="round"/>
<line x1="562.883" y1="235.043" x2="545.092" y2="235.043" stroke="#E5DCBF" stroke-linecap="round"/>
<line x1="563.123" y1="244.386" x2="544.145" y2="225.408" stroke="#E5DCBF" stroke-linecap="round"/>
<line x1="563.83" y1="225.408" x2="544.852" y2="244.386" stroke="#E5DCBF" stroke-linecap="round"/>
<line x1="554.435" y1="592.464" x2="554.435" y2="610.36" stroke="#E5DCBF" stroke-width="0.894802" stroke-linecap="round"/>
<line x1="562.936" y1="601.86" x2="545.04" y2="601.859" stroke="#E5DCBF" stroke-width="0.894802" stroke-linecap="round"/>
<line x1="563.198" y1="611.255" x2="544.145" y2="592.202" stroke="#E5DCBF" stroke-width="0.894802" stroke-linecap="round"/>
<line x1="563.83" y1="592.202" x2="544.778" y2="611.255" stroke="#E5DCBF" stroke-width="0.894802" stroke-linecap="round"/>
<line x1="177.776" y1="139.3" x2="177.776" y2="157.09" stroke="#E5DCBF" stroke-linecap="round"/>
<line x1="186.171" y1="148.695" x2="168.381" y2="148.695" stroke="#E5DCBF" stroke-linecap="round"/>
<line x1="186.412" y1="158.038" x2="167.433" y2="139.059" stroke="#E5DCBF" stroke-linecap="round"/>
<line x1="187.119" y1="139.059" x2="168.14" y2="158.038" stroke="#E5DCBF" stroke-linecap="round"/>
<line x1="385.37" y1="138.852" x2="385.37" y2="156.643" stroke="#E5DCBF" stroke-linecap="round"/>
<line x1="393.765" y1="148.248" x2="375.975" y2="148.248" stroke="#E5DCBF" stroke-linecap="round"/>
<line x1="394.006" y1="157.59" x2="375.027" y2="138.612" stroke="#E5DCBF" stroke-linecap="round"/>
<line x1="394.713" y1="138.612" x2="375.734" y2="157.59" stroke="#E5DCBF" stroke-linecap="round"/>
<line x1="407.74" y1="172.854" x2="407.74" y2="190.645" stroke="#E5DCBF" stroke-linecap="round"/>
<line x1="416.136" y1="182.25" x2="398.345" y2="182.25" stroke="#E5DCBF" stroke-linecap="round"/>
<line x1="416.376" y1="191.593" x2="397.397" y2="172.614" stroke="#E5DCBF" stroke-linecap="round"/>
<line x1="417.083" y1="172.614" x2="398.104" y2="191.593" stroke="#E5DCBF" stroke-linecap="round"/>
<path d="M32.3181 653.311C32.3181 648.863 35.9236 645.257 40.3713 645.257H132.536C136.984 645.257 140.589 648.863 140.589 653.311V662.259H32.3181V653.311Z" stroke="#E5DCBF"/>
<path d="M40.3713 636.309C40.3713 631.862 43.9768 628.256 48.4245 628.256H124.483C128.93 628.256 132.536 631.862 132.536 636.309V645.257H40.3713V636.309Z" stroke="#E5DCBF" stroke-width="0.894802"/>
<path d="M132.536 636.309C132.536 631.862 128.93 628.256 124.483 628.256H48.4245C43.9768 628.256 40.3713 631.862 40.3713 636.309V645.257H132.536V636.309Z" stroke="#E5DCBF"/>
<path d="M122.097 628.256L118.941 471.091M114.64 256.913L116.635 356.236M116.891 369.003L118.608 454.49" stroke="#E5DCBF"/>
<path d="M48.2496 281.073C48.2496 281.073 47.2875 281.931 45.8706 283.465C39.981 289.936 26.6957 308.476 48.2482 325.914C74.6855 347.304 104.62 335.725 131.242 371.596C125.559 363.673 121.02 340.511 124.483 321.275C131.304 283.385 183.097 269.679 201.852 302.198C202.927 303.762 203.225 304.785 203.225 304.785C202.79 303.892 202.332 303.03 201.852 302.198C183.097 269.679 131.304 283.385 124.483 321.275C121.02 340.511 125.559 363.673 131.242 371.596C131.321 371.702 131.399 371.808 131.478 371.915C131.399 371.812 131.321 371.705 131.242 371.596C104.62 335.725 74.6855 347.304 48.2482 325.914C26.6957 308.476 39.981 289.936 45.8706 283.465C41.2944 288.417 31.9745 300.413 35.001 313.286C40.9968 338.788 63.9148 346.22 85.1114 352.657C115.817 361.981 133.673 376.013 131.478 418.689C129.391 459.264 131.273 467.412 131.463 468.116C131.473 468.151 131.478 468.169 131.478 468.169C131.478 468.169 131.473 468.152 131.463 468.116C131.129 467.002 124.876 448.562 74.8202 439.453C38.2773 432.803 45.9149 395.863 47.8736 388.332C48.0983 387.468 48.2482 386.991 48.2482 386.991C48.2482 386.991 48.1023 387.465 47.8736 388.332C45.9149 395.863 38.2773 432.803 74.8202 439.453C124.876 448.562 131.129 467.002 131.463 468.116C131.273 467.412 129.391 459.264 131.478 418.689C133.673 376.013 115.817 361.981 85.1114 352.657C63.9148 346.22 40.9968 338.788 35.001 313.286C31.9745 300.413 41.2944 288.417 45.8706 283.465C47.2684 281.929 48.2496 281.073 48.2496 281.073Z" fill="#515D38"/>
<path d="M48.2496 281.073C48.2496 281.073 31.0374 296.428 35.001 313.286C40.9968 338.788 63.9148 346.22 85.1114 352.657C115.817 361.981 133.673 376.013 131.478 418.689C129.283 461.365 131.478 468.169 131.478 468.169C131.478 468.169 126.448 448.848 74.8202 439.453C34.0859 432.04 48.2482 386.991 48.2482 386.991M48.2496 281.073C48.2496 281.073 21.5804 304.338 48.2482 325.914C74.7636 347.367 104.797 335.656 131.478 371.915C125.686 364.313 120.972 340.776 124.483 321.275C131.478 282.415 185.777 268.993 203.225 304.785C203.225 304.785 200.63 295.865 183.092 290.468C159.827 283.31 141.739 305.233 137.905 319.102C134.07 332.971 137.905 348.631 142.379 358.921C144.479 353.887 147.39 347.154 153.564 342.227M48.2496 281.073C49.0536 280.178 52.0037 277.494 57.3725 273.915M48.2482 386.991C48.2482 386.991 31.6968 440.812 74.8202 448.848C91.374 451.933 131.478 468.556 131.478 497.161C131.478 525.767 133.765 565.196 126.448 579.499L121.35 586.2M48.2482 386.991C48.9035 384.643 51.2879 378.07 55.5829 370.553M285.547 650.626H214.251C208.306 650.626 196.416 648.616 196.416 640.575C196.416 630.525 187.269 615.062 167.605 615.062C151.874 615.062 146.722 524.865 146.112 479.766C146.112 476.587 150.854 472.265 167.605 461.597C181.303 452.875 181.303 430.233 169.223 416.188C175.379 423.346 177.977 435.92 172.802 447.059C166.773 460.036 150.228 460.309 146.112 461.597V386.991C145.807 379.002 147.461 345.441 175.039 342.814C203.225 340.13 202.778 359.368 202.778 359.368C202.778 359.368 208.147 335.656 175.039 335.656C169.287 335.656 164.59 336.581 160.722 338.107" stroke="#E5DCBF" stroke-linecap="round" stroke-linejoin="round"/>
<path d="M166.091 455.112C165.932 454.212 165.796 453.25 165.799 451.533M165.799 451.533C165.802 448.918 165.691 445.034 166.969 442.001C167.263 441.304 168.17 441.446 168.35 442.179C168.714 443.656 169.165 445.641 169.223 446.611C169.408 449.705 168.775 450.638 165.799 451.533Z" stroke="#E5DCBF"/>
<path d="M190.696 330.287C209.039 328.945 206.803 310.602 202.776 303.443C202.776 303.443 213.963 324.081 188.908 325.366C166.093 326.536 173.247 309.259 173.247 309.259C168.327 314.628 167.752 331.966 190.696 330.287Z" stroke="#E5DCBF" stroke-linejoin="round"/>
<path d="M191.087 369.461C200.168 369.779 204.131 361.815 202.33 356.236C202.33 356.236 197.576 365.182 190.315 364.135C183.679 363.179 183.914 354.484 183.914 354.484C181.001 359.432 184.505 369.23 191.087 369.461Z" stroke="#E5DCBF" stroke-linejoin="round"/>
<path d="M507.269 251.132C509.097 251.741 513.917 252.025 513.917 246.176C513.917 239.108 504.735 237.816 500.048 241.534C497.162 243.823 496.662 250.174 499.153 252.887M477.107 224.625H501.837C513.47 224.625 524.046 228.827 525.55 241.534C526.892 252.887 517.496 257.987 510.925 257.987C504.354 257.987 501.837 255.81 499.153 252.887M499.153 252.887C493.784 257.361 486.626 260.729 477.107 260.729" stroke="#E5DCBF" stroke-linecap="round"/>
<path d="M447.069 251.132C445.241 251.741 440.421 252.025 440.421 246.176C440.421 239.108 449.604 237.816 454.291 241.534C457.176 243.823 457.677 250.174 455.186 252.887M477.232 224.625H452.501C440.869 224.625 430.292 228.827 428.789 241.534C427.446 252.887 436.842 257.987 443.413 257.987C449.984 257.987 452.501 255.81 455.186 252.887M455.186 252.887C460.554 257.361 467.713 260.729 477.232 260.729" stroke="#E5DCBF" stroke-linecap="round"/>
<path d="M531.943 653.311C531.943 648.863 528.337 645.257 523.889 645.257H431.725C427.277 645.257 423.672 648.863 423.672 653.311V662.259H531.943V653.311Z" stroke="#E5DCBF"/>
<path d="M523.889 636.309C523.889 631.862 520.284 628.256 515.836 628.256H439.778C435.33 628.256 431.725 631.862 431.725 636.309V645.257H523.889V636.309Z" stroke="#E5DCBF" stroke-width="0.894802"/>
<path d="M431.725 636.309C431.725 631.862 435.33 628.256 439.778 628.256H515.836C520.284 628.256 523.889 631.862 523.889 636.309V645.257H431.725V636.309Z" stroke="#E5DCBF" stroke-width="0.894802"/>
<path d="M373.565 330.287C355.222 328.945 357.458 310.602 361.484 303.443C361.484 303.443 350.298 324.081 375.352 325.366C398.167 326.536 391.014 309.259 391.014 309.259C395.934 314.628 396.509 331.966 373.565 330.287Z" stroke="#E5DCBF" stroke-width="0.894802"/>
<path d="M158.341 257.797C148.771 254.903 136.332 258.762 133.937 274.676C132.676 283.059 133.698 288.348 137.822 297.179M158.341 257.797C149.127 255.01 133.363 259.761 136.808 279.499C137.762 284.963 139.444 289.568 141.484 293.736M158.341 257.797C160.38 258.446 163.789 260.316 165.803 263.584M165.803 263.584C166.783 265.175 167.433 267.097 167.433 269.371C167.433 276.316 162.648 279.016 158.341 279.499C153.548 280.035 149.25 277.087 151.164 269.371C151.323 272.104 152.86 276.123 158.341 276.123C164.084 276.123 167.522 268.407 165.803 263.584ZM146.857 303.079C153.229 313.1 162.535 330.448 160.722 338.34M143.274 307.935C144.367 310.008 145.56 312.253 146.857 314.704C155.188 330.446 153.564 335.656 153.564 342.367" stroke="#E5DCBF" stroke-linejoin="round"/>
<path d="M165.196 463.165C166.538 462.272 170.405 459.399 174.623 460.222M174.623 460.222C180.408 462.718 180.408 472.561 170.757 473.251C180.855 477.482 187.119 462.66 174.623 460.222Z" stroke="#E5DCBF" stroke-linejoin="round"/>
<path d="M175.936 451.532C176.829 449.743 177.724 443.479 182.52 441.636M182.52 441.636C188.718 440.505 194.177 448.696 186.528 454.622C197.278 452.543 194.404 437.069 182.52 441.636Z" stroke="#E5DCBF" stroke-linecap="round" stroke-linejoin="round"/>
<path d="M177.278 284.652C179.96 285.1 185.438 286.545 189.211 283.056M189.211 283.056C192.964 277.996 188.029 269.48 179.332 273.723C185.948 264.998 198.559 274.414 189.211 283.056Z" stroke="#E5DCBF" stroke-linecap="round" stroke-linejoin="round"/>
<path d="M169.713 416.636C166.73 414.846 161.302 409.567 163.449 402.766C165.239 403.512 168.998 407.33 169.713 416.636Z" stroke="#E5DCBF" stroke-linejoin="round"/>
<path d="M146.185 421.557C146.185 419.916 147.348 415.025 152.001 408.582M152.001 408.582C154.089 406.494 157.818 400.976 156.028 395.608C155.581 396.95 154.149 400.082 152.001 401.871C149.854 403.661 151.107 407.091 152.001 408.582Z" stroke="#E5DCBF" stroke-linejoin="round"/>
<path d="M37.5019 328.423C34.6357 327.714 28.5929 324.915 27.352 319.393C28.4284 320.312 31.2721 322.254 34.0353 322.677C36.7986 323.1 37.4977 326.684 37.5019 328.423ZM37.5019 328.423C40.7426 329.803 43.2389 331.276 45.088 332.61" stroke="#E5DCBF" stroke-linejoin="round"/>
<path d="M44.5623 396.104C44.9425 393.176 44.5294 386.529 39.8356 383.368C40.3001 384.704 41.0768 388.059 40.4674 390.787C39.858 393.515 42.9434 395.469 44.5623 396.104ZM44.5623 396.104C44.6708 399.625 45.1364 402.485 45.7084 404.693" stroke="#E5DCBF" stroke-linejoin="round"/>
<path d="M124.931 429.61C118.846 423.525 122.395 417.53 124.931 415.293C124.632 416.635 124.393 419.767 125.825 421.557C127.614 423.794 126.274 428.715 124.931 429.61ZM124.931 429.61C125.676 431.698 126.808 436.232 130.745 437.663" stroke="#E5DCBF" stroke-linejoin="round"/>
<path d="M35.6777 290.021C29.5931 283.936 33.1424 277.941 35.6777 275.704C35.3792 277.046 35.1402 280.178 36.5719 281.968C38.3615 284.205 37.0206 289.126 35.6777 290.021ZM35.6777 290.021C36.1388 291.312 36.7477 293.54 38.0769 295.39" stroke="#E5DCBF" stroke-linejoin="round"/>
<path d="M46.0401 431.033C37.5548 429.603 36.9711 422.66 37.7399 419.368C38.2748 420.635 39.8957 423.325 42.0998 423.953C44.8549 424.738 46.6155 429.526 46.0401 431.033ZM46.0401 431.033C47.1646 431.818 48.9519 433.28 51.1075 434.017" stroke="#E5DCBF" stroke-linejoin="round"/>
<path d="M125.158 306.127C119.073 300.043 122.623 294.048 125.158 291.811C124.859 293.153 124.62 296.285 126.052 298.074C127.842 300.311 126.501 305.233 125.158 306.127ZM125.158 306.127C125.626 307.437 126.245 309.71 127.614 311.575" stroke="#E5DCBF" stroke-linejoin="round"/>
<path d="M513.273 628.256L509.599 438.111M506.116 257.808L507.538 331.442M509.426 429.163L507.728 341.266" stroke="#E5DCBF"/>
<path d="M523.564 636.309C523.564 631.862 519.959 628.256 515.511 628.256H439.453C435.005 628.256 431.4 631.862 431.4 636.309V645.257H523.564V636.309Z" stroke="#E5DCBF"/>
<path d="M441.838 628.256L444.995 471.091M449.296 256.913L447.301 356.236M447.045 369.003L445.328 454.49" stroke="#E5DCBF"/>
<path d="M397.845 455.112C398.003 454.212 398.139 453.25 398.137 451.533M398.137 451.533C398.134 448.918 398.245 445.034 396.966 442.001C396.673 441.304 395.766 441.446 395.585 442.179C395.222 443.656 394.771 445.641 394.713 446.611C394.528 449.705 395.16 450.638 398.137 451.533Z" stroke="#E5DCBF"/>
<path d="M373.24 330.287C354.897 328.945 357.133 310.602 361.159 303.443C361.159 303.443 349.973 324.081 375.027 325.366C397.842 326.536 390.689 309.259 390.689 309.259C395.609 314.628 396.184 331.966 373.24 330.287Z" stroke="#E5DCBF" stroke-linejoin="round"/>
<path d="M398.739 463.165C397.397 462.272 393.531 459.399 389.312 460.222M389.312 460.222C383.528 462.718 383.528 472.561 393.179 473.251C383.08 477.482 376.817 462.66 389.312 460.222Z" stroke="#E5DCBF" stroke-linejoin="round"/>
<path d="M388 451.532C387.107 449.743 386.212 443.479 381.415 441.636M381.415 441.636C375.217 440.505 369.759 448.696 377.408 454.622C366.658 452.543 369.531 437.069 381.415 441.636Z" stroke="#E5DCBF" stroke-linecap="round" stroke-linejoin="round"/>
<path d="M386.658 284.652C383.975 285.1 378.498 286.545 374.725 283.056M374.725 283.056C370.972 277.996 375.907 269.48 384.603 273.723C377.987 264.998 365.377 274.414 374.725 283.056Z" stroke="#E5DCBF" stroke-linecap="round" stroke-linejoin="round"/>
<path d="M394.223 416.636C397.205 414.846 402.634 409.567 400.486 402.766C398.697 403.512 394.938 407.33 394.223 416.636Z" stroke="#E5DCBF" stroke-linejoin="round"/>
<path d="M417.751 421.557C417.751 419.916 416.587 415.025 411.934 408.582M411.934 408.582C409.846 406.494 406.118 400.976 407.908 395.608C408.355 396.95 409.787 400.082 411.934 401.871C414.082 403.661 412.829 407.091 411.934 408.582Z" stroke="#E5DCBF" stroke-linejoin="round"/>
<path d="M526.434 328.423C529.3 327.714 535.343 324.915 536.584 319.393C535.507 320.312 532.664 322.254 529.9 322.677C527.137 323.1 526.438 326.684 526.434 328.423ZM526.434 328.423C523.193 329.803 520.697 331.276 518.848 332.61" stroke="#E5DCBF" stroke-linejoin="round"/>
<path d="M519.373 396.104C518.993 393.176 519.406 386.529 524.1 383.368C523.636 384.704 522.859 388.059 523.468 390.787C524.078 393.515 520.992 395.469 519.373 396.104ZM519.373 396.104C519.265 399.625 518.799 402.485 518.227 404.693" stroke="#E5DCBF" stroke-linejoin="round"/>
<path d="M439.005 429.61C445.09 423.525 441.54 417.53 439.005 415.293C439.303 416.635 439.542 419.767 438.111 421.557C436.321 423.794 437.662 428.715 439.005 429.61ZM439.005 429.61C438.259 431.698 437.128 436.232 433.191 437.663" stroke="#E5DCBF" stroke-linejoin="round"/>
<path d="M528.258 290.021C534.343 283.936 530.793 277.941 528.258 275.704C528.556 277.046 528.795 280.178 527.364 281.968C525.574 284.205 526.915 289.126 528.258 290.021ZM528.258 290.021C527.797 291.312 527.188 293.54 525.859 295.39" stroke="#E5DCBF" stroke-linejoin="round"/>
<path d="M517.896 431.033C526.381 429.603 526.965 422.66 526.196 419.368C525.661 420.635 524.04 423.325 521.836 423.953C519.081 424.738 517.32 429.526 517.896 431.033ZM517.896 431.033C516.771 431.818 514.984 433.28 512.828 434.017" stroke="#E5DCBF" stroke-linejoin="round"/>
<path d="M438.778 306.127C444.862 300.043 441.313 294.048 438.778 291.811C439.076 293.153 439.315 296.285 437.884 298.074C436.094 300.311 437.435 305.233 438.778 306.127ZM438.778 306.127C438.31 307.437 437.69 309.71 436.321 311.575" stroke="#E5DCBF" stroke-linejoin="round"/>
<path d="M49.8582 51.1132C49.8582 51.914 50.6899 54.1184 53.7176 53.5157C58.5347 52.5568 59.9891 45.3471 53.7176 44.8666C47.4461 44.3861 41.1674 52.0763 43.5866 59.7623C46.5089 69.0462 59.9819 64.5694 68.6656 56.8813M68.6656 56.8813C68.6656 54.4788 68.3667 50.5449 73.014 48.2305C75.9086 46.789 78.9471 47.6178 81.6977 49.672C83.6274 51.1132 89.9954 51.0168 88.4517 44.8666M68.6656 56.8813C68.6656 56.8813 69.1481 69.855 69.6371 78.0219C69.9488 83.2298 70.113 89.5533 61.4358 88.593C55.8888 87.9791 57.094 79.4634 63.8479 81.3854" stroke="#E5DCBF" stroke-linecap="round" stroke-linejoin="round"/>
<path d="M481.779 69.0712C480.799 69.0712 479.079 69.6625 478.838 71.9667C478.334 76.7921 491.582 79.6879 491.582 66.1758C491.582 63.7205 491.307 61.8229 490.86 60.3846M483.74 59.9023C483.339 56.7432 488.845 53.9073 490.86 60.3846M490.86 60.3846C491.096 58.9368 495.831 56.6415 499.41 57.0065C505.716 57.6497 508.233 66.1755 507.253 71.0012C506.272 75.827 499.9 78.2398 496.469 73.8967C493.038 69.5535 499.41 67.1406 500.881 70.5186" stroke="#E5DCBF" stroke-linecap="round" stroke-linejoin="round"/>
<path d="M265.966 614.457C266.407 613.191 267.499 609.677 272.256 612.347C272.88 612.697 273.458 613.431 273.952 614.457M265.965 632.73C265.13 635.404 269.556 636.402 271.446 633.997C277.015 626.914 276.435 619.619 273.952 614.457M273.952 614.457C274.642 612.205 277.358 608.462 282.707 611.502C283.692 612.062 284.477 612.787 285.085 613.613M279.364 622.902C278.946 623.325 278.624 625.311 281.871 625.858C286.146 626.578 288.599 618.396 285.085 613.613M285.085 613.613C286.52 611.643 291.147 609.307 294.824 615.725C299.42 623.747 291.899 626.703 289.81 622.902" stroke="#E5DCBF" stroke-linecap="round" stroke-linejoin="round"/>
<line x1="1.8948" y1="662.653" x2="560.251" y2="662.653" stroke="#E5DCBF"/>
<circle cx="282.863" cy="36.7922" r="5.76361" stroke="#E5DCBF"/>
<circle cx="271.23" cy="36.7921" r="2.18441" stroke="#E5DCBF"/>
<circle cx="294.495" cy="36.7921" r="2.18441" stroke="#E5DCBF"/>
<circle cx="282.863" cy="48.4244" r="2.18441" stroke="#E5DCBF"/>
<path d="M515.686 281.073C515.686 281.073 516.648 281.931 518.065 283.465C523.955 289.936 537.24 308.476 515.687 325.914C489.25 347.304 459.315 335.725 432.693 371.596C438.377 363.673 442.916 340.511 439.453 321.275C432.632 283.385 380.839 269.679 362.084 302.198C361.008 303.762 360.71 304.785 360.71 304.785C361.146 303.892 361.604 303.03 362.084 302.198C380.839 269.679 432.632 283.385 439.453 321.275C442.916 340.511 438.377 363.673 432.693 371.596C432.615 371.702 432.536 371.808 432.458 371.915C432.536 371.812 432.615 371.705 432.693 371.596C459.315 335.725 489.25 347.304 515.687 325.914C537.24 308.476 523.955 289.936 518.065 283.465C522.641 288.417 531.961 300.413 528.935 313.286C522.939 338.788 500.021 346.22 478.824 352.657C448.119 361.981 430.262 376.013 432.458 418.689C434.545 459.264 432.663 467.412 432.473 468.116C432.462 468.151 432.458 468.169 432.458 468.169C432.458 468.169 432.463 468.152 432.473 468.116C432.807 467.002 439.06 448.562 489.115 439.453C525.658 432.803 518.021 395.863 516.062 388.332C515.837 387.468 515.687 386.991 515.687 386.991C515.687 386.991 515.833 387.465 516.062 388.332C518.021 395.863 525.658 432.803 489.115 439.453C439.06 448.562 432.807 467.002 432.473 468.116C432.663 467.412 434.545 459.264 432.458 418.689C430.262 376.013 448.119 361.981 478.824 352.657C500.021 346.22 522.939 338.788 528.935 313.286C531.961 300.413 522.641 288.417 518.065 283.465C516.667 281.929 515.686 281.073 515.686 281.073Z" fill="#515D38"/>
<path d="M515.686 281.073C515.686 281.073 532.898 296.428 528.935 313.286C522.939 338.788 500.021 346.22 478.824 352.657C448.119 361.981 430.262 376.013 432.458 418.689C434.653 461.365 432.458 468.169 432.458 468.169C432.458 468.169 437.488 448.848 489.115 439.453C529.85 432.04 515.687 386.991 515.687 386.991M515.686 281.073C515.686 281.073 542.355 304.338 515.687 325.914C489.172 347.367 459.139 335.656 432.458 371.915C438.25 364.313 442.963 340.776 439.453 321.275C432.458 282.415 378.159 268.993 360.71 304.785C360.71 304.785 363.305 295.865 380.843 290.468C404.108 283.31 422.196 305.233 426.031 319.102C429.866 332.971 426.031 348.631 421.557 358.921C419.457 353.887 416.546 347.154 410.372 342.227M515.686 281.073C514.882 280.178 511.932 277.494 506.563 273.915M515.687 386.991C515.687 386.991 532.239 440.812 489.115 448.848C472.562 451.933 432.458 468.556 432.458 497.161C432.458 525.767 430.171 565.196 437.488 579.499L442.586 586.2M515.687 386.991C515.032 384.643 512.648 378.07 508.353 370.553M278.389 650.626H349.685C355.63 650.626 367.52 648.616 367.52 640.575C367.52 630.525 376.666 615.062 396.33 615.062C412.062 615.062 417.214 524.865 417.824 479.766C417.824 476.587 413.082 472.265 396.33 461.597C382.633 452.875 382.633 430.233 394.713 416.188C388.556 423.346 385.959 435.92 391.134 447.059C397.163 460.036 413.708 460.309 417.824 461.597V386.991C418.129 379.002 416.475 345.441 388.897 342.814C360.71 340.13 361.158 359.368 361.158 359.368C361.158 359.368 355.789 335.656 388.897 335.656C394.649 335.656 399.346 336.581 403.213 338.107" stroke="#E5DCBF" stroke-linecap="round" stroke-linejoin="round"/>
<path d="M372.848 369.461C363.768 369.779 359.805 361.815 361.605 356.236C361.605 356.236 366.359 365.182 373.621 364.135C380.257 363.179 380.021 354.484 380.021 354.484C382.935 359.432 379.43 369.23 372.848 369.461Z" stroke="#E5DCBF" stroke-linejoin="round"/>
<path d="M405.594 257.797C415.164 254.903 427.604 258.762 429.998 274.676C431.26 283.059 430.238 288.348 426.113 297.179M405.594 257.797C414.808 255.01 430.572 259.761 427.127 279.499C426.173 284.963 424.492 289.568 422.452 293.736M405.594 257.797C403.556 258.446 400.147 260.316 398.133 263.584M398.133 263.584C397.152 265.175 396.502 267.097 396.502 269.371C396.502 276.316 401.288 279.016 405.594 279.499C410.387 280.035 414.686 277.087 412.772 269.371C412.612 272.104 411.075 276.123 405.594 276.123C399.852 276.123 396.414 268.407 398.133 263.584ZM417.079 303.079C410.707 313.1 401.401 330.448 403.213 338.34M420.662 307.935C419.569 310.008 418.375 312.253 417.079 314.704C408.748 330.446 410.372 335.656 410.372 342.367" stroke="#E5DCBF" stroke-linejoin="round"/>
</svg>
