<svg width="83" height="63" viewBox="0 0 83 63" fill="none" xmlns="http://www.w3.org/2000/svg">
<path d="M46 40C61 39.5 70.5 34.5 71 29C71.5 23.5 66.5 22.5 66 19.5001C65.5 16.5003 68 15.5 69.5 15.5C71 15.5 75.5 16.5 74.5 19C73.7 21 72.5 20.1668 72 19.5001C71.6667 18.8335 70.7 17.9001 69.5 19.5001C68 21.5001 74.5 20.0001 74.5 30.0001C74.5 38.0001 65.5 43.5 61 45H22.5C12.1 39.4 9.5 30.5001 9.5 27.0001C9.5 22.6003 12.1667 21.8334 13.5 22C14.3333 22 16 22.4 16 24C16 25.6 14.6667 25.6667 14 25.5C12 33.5 22.5 36.5 25 36C27 35.6 28.8333 36.8333 29.5 37.5C33.9 39.9 39.5 40 42 40M46 40V28.5M46 40H42M46 28.5C49.3333 26.6666 57.5 26.5 61 31C62.6667 26.1667 63.5 15 53.5 9L49.75 8.5M46 28.5L42 30M46 8V3C46 2.33333 44.7 1 43.5 1C42.3 1 42 2 42 2.5V7.5M46 8L42 7.5M46 8L49.75 8.5M42 7.5C43 7.83333 45.1 9.1 45.5 11.5M42 7.5L34.75 6.5M42 30L30.5 35C32.6667 32.3334 34.5 24.7003 34.5 19.5001C34.5 14.3 30.6667 8.33329 27.5 5.5L34.75 6.5M42 30V40M42 30C42.5 29.1667 43.5 26.5 43.5 22.5M49.75 8.5C51.3333 9.66667 54.6 12.7 55 15.5M50.5 16C51.1667 17.1251 52.1 20.2001 50.5 23.5M34.75 6.5C36.3333 7.99995 39.3 12.5999 38.5 19" stroke="#E5DCBF" stroke-linecap="round" stroke-linejoin="round"/>
<path d="M12 45H76" stroke="#E5DCBF" stroke-linecap="round"/>
<path d="M1 51L40 51" stroke="#E5DCBF" stroke-linecap="round"/>
<path d="M43 56.5L82 56.5" stroke="#E5DCBF" stroke-linecap="round"/>
<path d="M23 62H46" stroke="#E5DCBF" stroke-linecap="round"/>
</svg>
