<svg width="65" height="94" viewBox="0 0 65 94" fill="none" xmlns="http://www.w3.org/2000/svg">
<path d="M24.0001 88C16.0001 89.5 12.5001 91.5 15.0001 93M24.0001 88C21.6667 89.1667 17.7001 91.8 20.5001 93M24.0001 88C25.1485 87.7847 26.1423 87.4266 27.0001 86.9686M27.0001 86.9686C30.9228 84.8739 32.0001 80.6882 32.0001 78.5C32.0001 78.5 32.0001 66.4629 32.0001 52.5M27.0001 86.9686C25.3334 88.6457 22.7001 92.2 25.5001 93M28.0001 16.5C28.5001 21 32.0001 20.5 32.0001 24.5C32.0001 27.8492 32.0001 31.591 32.0001 35.5M32.0001 35.5C32.1668 34 31.4001 30.1 27.0001 26.5C26.6358 26.2019 26.3032 25.9041 26.0001 25.6077M32.0001 35.5C32.0001 37.791 32.0001 40.1395 32.0001 42.5M23.5001 18C22.8886 19.2229 22.6417 22.3247 26.0001 25.6077M26.0001 25.6077C25.3334 24.5718 24.4001 22.4 26.0001 22C27.6001 21.6 28.0001 22.5 28.0001 23M32.0001 42.5C31.8334 39.6667 30.6001 33.9 27.0001 33.5C22.5001 33 24.0001 36.5 25.5001 36.5M32.0001 42.5C32.0001 43.999 32.0001 45.5029 32.0001 47M32.0001 47C31.6668 45 29.9001 40.7 25.5001 39.5C20.0001 38 19.4867 36 18.2434 33.5M32.0001 47C32.0001 48.0042 32.0001 49.0054 32.0001 50M18.2434 33.5C17.0001 31 18.0001 26.5 15.0001 26M18.2434 33.5C19.3289 33.5 21.6001 32.8 22.0001 30C22.0548 29.6169 22.1226 29.2856 22.2002 29M25.5001 30C25.5001 28.4 24.5001 27.6667 24.0001 27.5C23.5685 27.2123 22.6898 27.1977 22.2002 29M22.2002 29C21.3002 28.1667 19.8001 25.9 21.0001 23.5M32.0001 50C31.0001 47.6667 27.4001 43.5 21.0001 45.5C20.6468 45.6104 20.314 45.724 20.0001 45.8404M32.0001 50C32.0001 50.8387 32.0001 51.6727 32.0001 52.5M4.50007 54.5C4.16674 54.1667 3.70007 53.3 4.50007 52.5C4.95993 52.0401 5.31406 52.0032 6.00006 52.1461M6.00006 52.1461C6.80582 52.314 8.08939 53.4117 10.5001 53C15.1581 52.2045 13.307 48.5518 19.5001 46.0345M6.00006 52.1461C5.50006 51.7641 4.60006 50.7 5.00006 49.5M11.5001 52.5C10.3334 52.8333 8.10006 52.6 8.50006 49C8.53851 48.654 8.55879 48.3206 8.56329 48M6.50006 42.5C7.2533 43.1026 8.60567 44.9852 8.56329 48M8.56329 48C9.04222 47.6667 10.2001 47.2 11.0001 48M20.0001 45.8404C18.3334 46.5603 14.3001 47 11.5001 43M20.0001 45.8404C19.8278 45.9043 19.6612 45.969 19.5001 46.0345M11.5001 43C8.00006 38 10.5001 34 6.00006 32M11.5001 43C10.6667 41.1667 9.60005 37.1 12.0001 35.5C12.3419 35.2721 12.6512 35.1092 12.9311 35M15.5001 37C15.5001 36.557 15.1075 34.1512 12.9311 35M12.9311 35C13.4541 33.3333 13.9001 30.2 11.5001 31M19.5001 46.0345C18.0001 46.023 15.2001 45.3 16.0001 42.5C16.2504 41.6238 16.6052 41.0838 17.0001 40.7759M19.5001 41C18.9275 40.5419 17.8671 40.0996 17.0001 40.7759M17.0001 40.7759C17.8334 40.0172 19.0001 38 17.0001 36M32.0001 52.5C31.5001 50.8333 29.4948 47.6743 25.5001 48.5M25.5001 48.5C23.0822 48.9998 21.6649 50.4988 20.702 52.1461M25.5001 48.5C24.8334 49.1667 23.8001 50.9 25.0001 52.5C26.2001 54.1 25.8334 55.5 25.5001 56M16.0001 57C18.6673 59.3338 18.7749 55.4429 20.702 52.1461M20.702 52.1461C20.468 53.2641 20.6001 55.5 23.0001 55.5" stroke="#E5DCBF" stroke-linecap="round" stroke-linejoin="round"/>
<path d="M40.0208 88C48.0208 89.5 51.5208 91.5 49.0208 93M40.0208 88C42.3541 89.1667 46.3208 91.8 43.5208 93M40.0208 88C38.8724 87.7847 37.8786 87.4266 37.0208 86.9686M37.0208 86.9686C33.0981 84.8739 32.0208 80.6882 32.0208 78.5C32.0208 78.5 32.0208 66.4629 32.0208 52.5M37.0208 86.9686C38.6875 88.6457 41.3208 92.2 38.5208 93M36.0208 16.5C35.5208 21 32.0208 20.5 32.0208 24.5C32.0208 27.8492 32.0208 31.591 32.0208 35.5M32.0208 35.5C31.8541 34 32.6208 30.1 37.0208 26.5C37.3851 26.2019 37.7176 25.9041 38.0208 25.6077M32.0208 35.5C32.0208 37.791 32.0208 40.1395 32.0208 42.5M40.5208 18C41.1323 19.2229 41.3792 22.3247 38.0208 25.6077M38.0208 25.6077C38.6875 24.5718 39.6208 22.4 38.0208 22C36.4208 21.6 36.0208 22.5 36.0208 23M32.0208 42.5C32.1875 39.6667 33.4208 33.9 37.0208 33.5C41.5208 33 40.0208 36.5 38.5208 36.5M32.0208 42.5C32.0208 43.999 32.0208 45.5029 32.0208 47M32.0208 47C32.3541 45 34.1208 40.7 38.5208 39.5C44.0208 38 44.5342 36 45.7775 33.5M32.0208 47C32.0208 48.0042 32.0208 49.0054 32.0208 50M45.7775 33.5C47.0208 31 46.0208 26.5 49.0208 26M45.7775 33.5C44.6919 33.5 42.4208 32.8 42.0208 30C41.9661 29.6169 41.8983 29.2856 41.8207 29M38.5208 30C38.5208 28.4 39.5208 27.6667 40.0208 27.5C40.4524 27.2123 41.3311 27.1977 41.8207 29M41.8207 29C42.7207 28.1667 44.2208 25.9 43.0208 23.5M32.0208 50C33.0208 47.6667 36.6208 43.5 43.0208 45.5C43.3741 45.6104 43.7069 45.724 44.0208 45.8404M32.0208 50C32.0208 50.8387 32.0208 51.6727 32.0208 52.5M59.5208 54.5C59.8541 54.1667 60.3208 53.3 59.5208 52.5C59.0609 52.0401 58.7068 52.0032 58.0208 52.1461M58.0208 52.1461C57.2151 52.314 55.9315 53.4117 53.5208 53C48.8628 52.2045 50.7139 48.5518 44.5208 46.0345M58.0208 52.1461C58.5208 51.7641 59.4208 50.7 59.0208 49.5M52.5208 52.5C53.6875 52.8333 55.9208 52.6 55.5208 49C55.4824 48.654 55.4621 48.3206 55.4576 48M57.5208 42.5C56.7676 43.1026 55.4152 44.9852 55.4576 48M55.4576 48C54.9787 47.6667 53.8208 47.2 53.0208 48M44.0208 45.8404C45.6875 46.5603 49.7208 47 52.5208 43M44.0208 45.8404C44.1931 45.9043 44.3597 45.969 44.5208 46.0345M52.5208 43C56.0208 38 53.5208 34 58.0208 32M52.5208 43C53.3541 41.1667 54.4208 37.1 52.0208 35.5C51.679 35.2721 51.3696 35.1092 51.0898 35M48.5208 37C48.5208 36.557 48.9134 34.1512 51.0898 35M51.0898 35C50.5668 33.3333 50.1208 30.2 52.5208 31M44.5208 46.0345C46.0208 46.023 48.8208 45.3 48.0208 42.5C47.7705 41.6238 47.4157 41.0838 47.0208 40.7759M44.5208 41C45.0934 40.5419 46.1538 40.0996 47.0208 40.7759M47.0208 40.7759C46.1875 40.0172 45.0208 38 47.0208 36M32.0208 52.5C32.5208 50.8333 34.526 47.6743 38.5208 48.5M38.5208 48.5C40.9387 48.9998 42.356 50.4988 43.3189 52.1461M38.5208 48.5C39.1875 49.1667 40.2208 50.9 39.0208 52.5C37.8208 54.1 38.1875 55.5 38.5208 56M48.0208 57C45.3536 59.3338 45.246 55.4429 43.3189 52.1461M43.3189 52.1461C43.5529 53.2641 43.4208 55.5 41.0208 55.5" stroke="#E5DCBF" stroke-linecap="round" stroke-linejoin="round"/>
<path d="M2.00909 29.926L2.07086 29.6665C2.17379 29.2342 2.78895 29.2342 2.89189 29.6665L2.94625 29.8949C2.98368 30.0521 3.16088 30.1302 3.30218 30.0517C3.51193 29.9351 3.74629 30.1595 3.63898 30.3741L3.59882 30.4545C3.5227 30.6067 3.60362 30.7906 3.76727 30.8374L3.85207 30.8616C4.17123 30.9528 4.17123 31.4051 3.85207 31.4963L3.80356 31.5102C3.62402 31.5614 3.53905 31.7666 3.62973 31.9298L3.64399 31.9555C3.76737 32.1775 3.55341 32.4353 3.3124 32.355C3.1562 32.3029 2.98917 32.397 2.95268 32.5575L2.91265 32.7337C2.80833 33.1927 2.15442 33.1927 2.0501 32.7337L2.00424 32.5319C1.97087 32.3851 1.81812 32.2991 1.67529 32.3467C1.44519 32.4234 1.24825 32.1655 1.38279 31.9637L1.40868 31.9249C1.51154 31.7706 1.43234 31.5609 1.25317 31.5131L1.17934 31.4934C0.857187 31.4075 0.857188 30.9504 1.17934 30.8645L1.29942 30.8324C1.45912 30.7899 1.53353 30.6062 1.4485 30.4644L1.39329 30.3724C1.27757 30.1796 1.4919 29.958 1.68852 30.0672C1.81578 30.1379 1.97537 30.0676 2.00909 29.926Z" fill="#E5DCBF"/>
<path d="M11.7188 20.54L11.7806 20.2806C11.8835 19.8482 12.4987 19.8482 12.6016 20.2806L12.656 20.5089C12.6934 20.6661 12.8706 20.7442 13.0119 20.6657C13.2216 20.5491 13.456 20.7735 13.3487 20.9882L13.3085 21.0685C13.2324 21.2207 13.3133 21.4046 13.477 21.4514L13.5618 21.4756C13.8809 21.5668 13.8809 22.0191 13.5618 22.1103L13.5133 22.1242C13.3337 22.1755 13.2488 22.3806 13.3395 22.5438L13.3537 22.5695C13.4771 22.7916 13.2631 23.0494 13.0221 22.969C12.8659 22.917 12.6989 23.011 12.6624 23.1716L12.6224 23.3477C12.518 23.8067 11.8641 23.8067 11.7598 23.3477L11.714 23.1459C11.6806 22.9991 11.5278 22.9131 11.385 22.9607C11.1549 23.0374 10.958 22.7796 11.0925 22.5778L11.1184 22.5389C11.2213 22.3846 11.1421 22.1749 10.9629 22.1271L10.8891 22.1075C10.5669 22.0216 10.5669 21.5644 10.8891 21.4785L11.0091 21.4465C11.1688 21.4039 11.2432 21.2202 11.1582 21.0784L11.103 20.9864C10.9873 20.7936 11.2016 20.572 11.3982 20.6812C11.5255 20.7519 11.6851 20.6816 11.7188 20.54Z" fill="#E5DCBF"/>
<path d="M21.6443 11.4775L21.7061 11.2181C21.809 10.7857 22.4242 10.7857 22.5271 11.2181L22.5815 11.4464C22.6189 11.6036 22.7961 11.6817 22.9374 11.6032C23.1472 11.4866 23.3815 11.711 23.2742 11.9257L23.2341 12.006C23.158 12.1582 23.2389 12.3421 23.4025 12.3889L23.4873 12.4131C23.8065 12.5043 23.8065 12.9566 23.4873 13.0478L23.4388 13.0617C23.2593 13.113 23.1743 13.3181 23.265 13.4813L23.2792 13.507C23.4026 13.7291 23.1887 13.9869 22.9477 13.9065C22.7915 13.8545 22.6244 13.9485 22.5879 14.1091L22.5479 14.2852C22.4436 14.7442 21.7897 14.7442 21.6854 14.2852L21.6395 14.0834C21.6061 13.9366 21.4534 13.8506 21.3105 13.8982C21.0804 13.9749 20.8835 13.7171 21.018 13.5153L21.0439 13.4764C21.1468 13.3221 21.0676 13.1124 20.8884 13.0646L20.8146 13.045C20.4924 12.9591 20.4924 12.5019 20.8146 12.416L20.9347 12.384C21.0944 12.3414 21.1688 12.1577 21.0838 12.0159L21.0285 11.9239C20.9128 11.7311 21.1272 11.5095 21.3238 11.6187C21.451 11.6894 21.6106 11.6191 21.6443 11.4775Z" fill="#E5DCBF"/>
<path d="M32.0013 1.98358L32.063 1.72416C32.166 1.29183 32.7811 1.29183 32.8841 1.72416L32.9384 1.95247C32.9759 2.10971 33.1531 2.18778 33.2944 2.10928C33.5041 1.99275 33.7385 2.21714 33.6312 2.43176L33.591 2.51208C33.5149 2.66431 33.5958 2.84825 33.7595 2.89501L33.8443 2.91924C34.1634 3.01042 34.1634 3.46272 33.8443 3.55391L33.7957 3.56777C33.6162 3.61906 33.5312 3.82419 33.6219 3.98742L33.6362 4.01308C33.7596 4.23516 33.5456 4.49297 33.3046 4.41263C33.1484 4.36056 32.9814 4.45461 32.9449 4.61516L32.9048 4.79131C32.8005 5.25032 32.1466 5.25032 32.0423 4.79131L31.9964 4.58952C31.9631 4.4427 31.8103 4.3567 31.6675 4.40431C31.4374 4.48101 31.2404 4.22317 31.375 4.02136L31.4009 3.98253C31.5037 3.82823 31.4245 3.61853 31.2454 3.57075L31.1715 3.55106C30.8494 3.46516 30.8494 3.00799 31.1715 2.92208L31.2916 2.89006C31.4513 2.84747 31.5257 2.66377 31.4407 2.52205L31.3855 2.43004C31.2698 2.23717 31.4841 2.01558 31.6807 2.12481C31.808 2.19551 31.9676 2.1252 32.0013 1.98358Z" fill="#E5DCBF"/>
<path d="M62.7224 29.926L62.6606 29.6665C62.5577 29.2342 61.9425 29.2342 61.8396 29.6665L61.7852 29.8949C61.7478 30.0521 61.5706 30.1302 61.4293 30.0517C61.2195 29.9351 60.9852 30.1595 61.0925 30.3741L61.1326 30.4545C61.2087 30.6067 61.1278 30.7906 60.9642 30.8374L60.8794 30.8616C60.5602 30.9528 60.5602 31.4051 60.8794 31.4963L60.9279 31.5102C61.1074 31.5614 61.1924 31.7666 61.1017 31.9298L61.0875 31.9555C60.9641 32.1775 61.178 32.4353 61.419 32.355C61.5752 32.3029 61.7423 32.397 61.7788 32.5575L61.8188 32.7337C61.9231 33.1927 62.577 33.1927 62.6813 32.7337L62.7272 32.5319C62.7606 32.3851 62.9133 32.2991 63.0562 32.3467C63.2863 32.4234 63.4832 32.1655 63.3487 31.9637L63.3228 31.9249C63.2199 31.7706 63.2991 31.5609 63.4783 31.5131L63.5521 31.4934C63.8743 31.4075 63.8743 30.9504 63.5521 30.8645L63.432 30.8324C63.2723 30.7899 63.1979 30.6062 63.2829 30.4644L63.3382 30.3724C63.4539 30.1796 63.2395 29.958 63.0429 30.0672C62.9157 30.1379 62.7561 30.0676 62.7224 29.926Z" fill="#E5DCBF"/>
<path d="M53.0126 20.54L52.9509 20.2806C52.8479 19.8482 52.2328 19.8482 52.1298 20.2806L52.0755 20.5089C52.038 20.6661 51.8608 20.7442 51.7196 20.6657C51.5098 20.5491 51.2754 20.7735 51.3827 20.9882L51.4229 21.0685C51.499 21.2207 51.4181 21.4046 51.2545 21.4514L51.1697 21.4756C50.8505 21.5668 50.8505 22.0191 51.1697 22.1103L51.2182 22.1242C51.3977 22.1755 51.4827 22.3806 51.392 22.5438L51.3777 22.5695C51.2544 22.7916 51.4683 23.0494 51.7093 22.969C51.8655 22.917 52.0326 23.011 52.069 23.1716L52.1091 23.3477C52.2134 23.8067 52.8673 23.8067 52.9716 23.3477L53.0175 23.1459C53.0509 22.9991 53.2036 22.9131 53.3464 22.9607C53.5765 23.0374 53.7735 22.7796 53.6389 22.5778L53.6131 22.5389C53.5102 22.3846 53.5894 22.1749 53.7686 22.1271L53.8424 22.1075C54.1645 22.0216 54.1645 21.5644 53.8424 21.4785L53.7223 21.4465C53.5626 21.4039 53.4882 21.2202 53.5732 21.0784L53.6284 20.9864C53.7442 20.7936 53.5298 20.572 53.3332 20.6812C53.2059 20.7519 53.0464 20.6816 53.0126 20.54Z" fill="#E5DCBF"/>
<path d="M43.0871 11.4775L43.0253 11.2181C42.9224 10.7857 42.3072 10.7857 42.2043 11.2181L42.1499 11.4464C42.1125 11.6036 41.9353 11.6817 41.794 11.6032C41.5843 11.4866 41.3499 11.711 41.4572 11.9257L41.4974 12.006C41.5735 12.1582 41.4926 12.3421 41.3289 12.3889L41.2441 12.4131C40.925 12.5043 40.925 12.9566 41.2441 13.0478L41.2926 13.0617C41.4722 13.113 41.5571 13.3181 41.4665 13.4813L41.4522 13.507C41.3288 13.7291 41.5428 13.9869 41.7838 13.9065C41.94 13.8545 42.107 13.9485 42.1435 14.1091L42.1835 14.2852C42.2879 14.7442 42.9418 14.7442 43.0461 14.2852L43.092 14.0834C43.1253 13.9366 43.2781 13.8506 43.4209 13.8982C43.651 13.9749 43.8479 13.7171 43.7134 13.5153L43.6875 13.4764C43.5847 13.3221 43.6638 13.1124 43.843 13.0646L43.9168 13.045C44.239 12.9591 44.239 12.5019 43.9168 12.416L43.7968 12.384C43.6371 12.3414 43.5627 12.1577 43.6477 12.0159L43.7029 11.9239C43.8186 11.7311 43.6043 11.5095 43.4077 11.6187C43.2804 11.6894 43.1208 11.6191 43.0871 11.4775Z" fill="#E5DCBF"/>
</svg>
