<svg width="291" height="1968" viewBox="0 0 291 1968" fill="none" xmlns="http://www.w3.org/2000/svg">
<path d="M146 1967C146 1967 168.5 1950 168.5 1915.5C171.06 1899.8 130.5 1801.07 230.5 1773C244.825 1768.98 287.193 1767.24 278 1748.5C265.001 1722 283.662 1714.7 278 1699.5C259.298 1649.28 186.633 1672.33 146 1662C109.645 1652.76 5.25556 1671.22 3.50049 1618.5C2.66949 1593.54 52.5901 1594.25 48.5005 1570C41.5005 1528.5 83.8653 1517.9 83.5005 1502C82.8344 1472.96 265.178 1413.61 265.001 1383.5C264.852 1358.24 193 1347.5 146 1330C105 1289 10.8229 1279.26 12.0005 1250C13.1641 1221.08 22.5005 1239.5 40.0001 1194.5C42.3082 1165.27 101.351 1141.04 105 1115.5C181.001 1093 252.449 1053.28 257.001 995.5C262.711 923.002 14.75 995.4 12.0005 925C10.9718 898.661 42.5532 866.409 40.0001 841C36.2702 803.879 188.471 776.726 181 742.5C171.94 700.985 298.004 660.497 282.501 625C257.007 566.631 151.599 596.702 105 561.5C13.0005 492 40.0001 465.5 83.5005 426.5C104.925 407.292 129.923 427.527 156.5 416.5C219.167 390.501 210.085 334.219 245 267C253.576 250.491 287.42 233.987 289.501 215.5C295.858 159.005 146 191 146 191C146 191 -25.9996 200 5.00026 157C25.0566 129.18 9.03646 97.25 40.0001 68.5C64.7263 45.5416 110.539 68.552 136.5 47C147.044 38.2472 146 1.50001 146 1.50001" stroke="#E5DCBF" stroke-width="2" stroke-linecap="round" stroke-linejoin="round" stroke-dasharray="2 7"/>
</svg>
