
<svg width="640" height="1174" viewBox="0 0 640 1174" fill="none" xmlns="http://www.w3.org/2000/svg">
<path d="M320.002 1.5C320.002 34 302.501 68.5 247.001 54.5C226.101 49.228 228.5 101.5 181.001 101.5C115.077 101.5 45.2956 67.2141 4.50085 119C-8.49717 135.5 15.9967 165 56.5 171.5C196.107 193.904 147 336 360 235C404.392 239.054 389.807 281.134 420 294C456.887 309.719 497.514 316.056 492.5 354C481.835 434.712 421.1 477.043 329 496.5C298.939 502.851 274.333 472.922 247.001 479C220.354 484.926 137.523 455.477 111 470.5C76.1337 490.248 26.9997 488 4.49971 546.5C-1.4281 561.912 5.14544 595.233 48.9997 618.5C93.347 642.029 175.23 655.399 214.5 651.5C245.687 648.403 327 576.764 346.5 582.5C415 595.5 414.153 627.247 433.5 634C462.614 644.162 556.976 617.406 579.5 634C610.117 656.557 637.869 615.172 638.5 660C638.777 679.655 603.87 728.236 594.052 741.5C557.68 790.637 460.766 801.106 368 811.397C336.699 814.87 312.371 792.59 284.5 797.5C253.096 803.033 248.839 843.149 228.5 854.5C204.421 867.938 126.272 957.582 118 984.5C86.4997 1087 136.191 1097 214.5 1097C284.5 1097 320.002 1140.5 320.002 1172.5" stroke="#E5DCBF" stroke-width="2" stroke-linecap="round" stroke-linejoin="round" stroke-dasharray="2 7"/>
</svg>
