<svg width="83" height="62" viewBox="0 0 83 62" fill="none" xmlns="http://www.w3.org/2000/svg">
<path d="M59.5715 22C59.5715 28.6596 55.8668 34.4548 50.4034 37.4356C47.9076 38.7973 45.045 39.5714 42 39.5714C38.9551 39.5714 36.0925 38.7973 33.5967 37.4356C33.2363 37.2389 32.8835 37.03 32.5389 36.8094C27.6604 33.6861 24.4286 28.2203 24.4286 22C24.4286 15.7796 27.6604 10.3138 32.5389 7.1905C32.8835 6.96988 33.2362 6.76097 33.5967 6.56433C36.0925 5.20261 38.9551 4.42853 42 4.42853C45.045 4.42853 47.9076 5.20261 50.4034 6.56433C55.8668 9.54513 59.5715 15.3403 59.5715 22Z" stroke="#E5DCBF" stroke-linecap="round"/>
<circle cx="42" cy="22" r="1.5" stroke="#E5DCBF"/>
<circle cx="42" cy="22" r="21.5" stroke="#E5DCBF"/>
<path d="M52.857 19.6428C52.6622 19.7105 52.2726 20.0088 52.2726 20.6594C52.2726 21.4728 53.6363 21.6761 54.6104 20.6594C55.5845 19.6428 57.3379 19.2361 57.5327 20.6594C57.6885 21.7981 55.9092 22.2183 55 22.2861M55 22.2861C55.8442 22.4217 57.5327 22.9774 57.5327 24.1161C57.5327 25.5395 55.1948 24.9295 54.6104 24.1161C54.0259 23.3028 52.2726 22.8961 52.2726 24.1161C52.2726 24.9295 52.6622 25.2006 52.857 25.1328M55 22.2861H61.6429M61.6429 22.2861V21.4728M61.6429 22.2861V23.0994M61.6429 22.2861H62.4221" stroke="#E5DCBF" stroke-linecap="round" stroke-linejoin="round"/>
<path d="M12 44H76" stroke="#E5DCBF" stroke-linecap="round"/>
<path d="M1 50L40 50" stroke="#E5DCBF" stroke-linecap="round"/>
<path d="M43 55.5L82 55.5" stroke="#E5DCBF" stroke-linecap="round"/>
<path d="M23 61H46" stroke="#E5DCBF" stroke-linecap="round"/>
</svg>
